<svg version="1.2" xmlns="http://www.w3.org/2000/svg" viewBox="0 0 1440 360" width="1440" height="360">
	<defs>
		<clipPath clipPathUnits="userSpaceOnUse" id="cp1">
			<path d="m6.47 5.09h329v342h-329z"/>
		</clipPath>
		<clipPath clipPathUnits="userSpaceOnUse" id="cp2">
			<path d="m161.67 175h173.8v172.09h-173.8z"/>
		</clipPath>
	</defs>
	<style>
		.s0 { fill: #6383e8 } 
	</style>
	<g id="Clip-Path" clip-path="url(#cp1)">
		<g>
			<path class="s0" d="m176.45 76.55h90.53c37.61 0 68.19-30.49 68.19-68.17h-157.87c-94.35 0-170.83 76.56-170.83 170.91 0 94.35 76.48 170.82 170.83 170.82l53.52 0.17-39.29-68.09h-15.08v-0.17c-56.75 0-102.65-45.99-102.65-102.73 0-56.75 45.99-102.74 102.73-102.74z"/>
		</g>
	</g>
	<g id="Clip-Path" clip-path="url(#cp2)">
		<g>
			<path class="s0" d="m335.25 347.28l-97.06-170.99h-76.39l97.05 170.99z"/>
		</g>
	</g>
	<g>
		<g>
			<g>
				<path class="s0" d="m436.59 289.05q-20.5 0-37.4-6.75-16.87-6.75-29.02-18.75-12.13-12.02-18.89-28.52-6.75-16.52-6.75-36.05v-0.5q0-18.75 6.87-35.12 6.89-16.39 19.15-28.77 12.27-12.39 29.02-19.52 16.77-7.15 36.77-7.15 11.77 0 21.39 1.63 9.63 1.62 17.88 4.64 8.27 3 15.52 7.5 7.25 4.5 14.02 10.25l-24.27 29.27q-5-4.25-10.02-7.5-5-3.25-10.38-5.5-5.37-2.25-11.62-3.5-6.25-1.26-13.77-1.27-10.5 0.01-19.65 4.4-9.12 4.37-16 11.75-6.87 7.38-10.75 17.27-3.87 9.87-3.87 21.12v0.5q0 12.03 3.87 22.15 3.88 10.13 11 17.65 7.13 7.5 16.75 11.62 9.65 4.13 21.4 4.13 21.52 0 36.29-10.5v-25.02h-38.79v-33.28h76.06v76.05q-13.52 11.52-32.17 19.64-18.62 8.13-42.64 8.13z"/>
			</g>
		</g>
	</g>
	<g>
		<g>
			<g>
				<path class="s0" d="m542.17 151.96h38.02v27.02q5.75-13.76 15.75-22.02 10.02-8.25 27.02-7.5v39.77h-2q-19.02 0.01-29.9 11.53-10.87 11.5-10.87 35.75v49.54h-38.02z"/>
			</g>
		</g>
	</g>
	<g>
		<g>
			<g>
				<path class="s0" d="m706.52 289.05q-15.52 0-28.79-5.38-13.25-5.37-22.88-14.75-9.62-9.39-15.14-22.02-5.5-12.64-5.5-27.14v-0.5q0-14.52 5.5-27.15 5.52-12.63 15.27-22.13 9.75-9.51 23-15.02 13.27-5.5 29.04-5.5 15.5 0 28.75 5.38 13.27 5.38 22.9 14.77 9.64 9.37 15.14 22 5.5 12.63 5.5 27.15v0.5q0 14.5-5.5 27.14-5.5 12.63-15.27 22.15-9.75 9.5-23.02 15-13.25 5.5-29 5.5zm0.5-32.77q8.25 0 14.63-2.88 6.37-2.87 10.87-7.87 4.52-5 6.9-11.63 2.37-6.64 2.37-14.14v-0.5q0-7.5-2.5-14.13-2.5-6.64-7.27-11.77-4.75-5.13-11.25-8.13-6.5-3-14.25-3-8.27 0-14.65 2.88-6.37 2.87-10.87 7.87-4.5 5.01-6.88 11.65-2.37 6.63-2.37 14.13v0.5q0 7.5 2.5 14.14 2.5 6.63 7.25 11.75 4.75 5.13 11.12 8.13 6.38 3 14.4 3z"/>
			</g>
		</g>
	</g>
	<g>
		<g>
			<g>
				<path class="s0" d="m811.08 184.48h-15.77v-31.27h15.77v-8.52q0-21.75 10.75-32.52 10.5-10.5 30.77-10.5 9 0 15.38 1 6.39 1 11.64 2.75v31.52q-4.25-1.5-8.25-2.37-4-0.88-9.02-0.88-13.75 0.01-13.75 14.52v5.25h30.77v31.02h-30.27v101.57h-38.02z"/>
			</g>
		</g>
	</g>
	<g>
		<g>
			<g>
				<path class="s0" d="m897.89 151.96h38.02v27.02q5.75-13.76 15.75-22.02 10.02-8.25 27.02-7.5v39.77h-2q-19.02 0.01-29.89 11.53-10.88 11.5-10.88 35.75v49.54h-38.02z"/>
			</g>
		</g>
	</g>
	<g>
		<g>
			<g>
				<path class="s0" d="m1059.99 289.05q-15.02 0-27.91-5-12.88-5-22.25-14.25-9.38-9.27-14.65-21.9-5.25-12.64-5.25-28.14v-0.5q0-14.27 4.87-27.03 4.9-12.75 13.65-22.25 8.75-9.51 20.88-15.02 12.14-5.5 26.89-5.5 16.77 0 29.02 6 12.27 6.01 20.4 16.15 8.12 10.13 12 23.27 3.89 13.13 3.89 27.38 0 2.25-0.12 4.75-0.13 2.5-0.38 5.25h-93.31q2.75 13.02 11.38 19.64 8.62 6.63 21.39 6.63 9.5 0 17-3.25 7.5-3.25 15.52-10.5l21.75 19.25q-9.5 11.77-23.02 18.39-13.5 6.63-31.75 6.63zm24.5-80.54q-1.75-12.77-9-20.65-7.25-7.88-19.27-7.88-12 0-19.37 7.75-7.38 7.76-9.63 20.78z"/>
			</g>
		</g>
	</g>
	<g>
		<g>
			<g>
				<path class="s0" d="m1194.57 288.55q-14.26 0-29.15-4.88-14.88-4.87-28.4-15.39l16.27-25q11 8 21.88 12 10.89 4 20.4 4 8.25 0 12.12-2.75 3.89-2.75 3.9-7.25v-0.5q-0.01-3-2.27-5.25-2.25-2.25-6.13-3.88-3.87-1.64-8.87-3.14-5-1.5-10.5-3.25-7.03-2-14.15-4.88-7.13-2.87-12.88-7.5-5.75-4.62-9.39-11.37-3.63-6.77-3.63-16.53v-0.5q0-10.25 3.88-18.12 3.89-7.89 10.52-13.4 6.62-5.5 15.5-8.25 8.89-2.75 19.15-2.75 12.75 0 25.87 4.13 13.14 4.12 24.17 11.37l-14.52 26.27q-10.01-5.75-19.52-9.12-9.5-3.38-16.75-3.38-7 0-10.5 2.63-3.5 2.62-3.5 6.62v0.5q0 2.75 2.25 4.88 2.25 2.12 6 4 3.75 1.87 8.62 3.62 4.88 1.75 10.38 3.5 7.01 2.26 14.27 5.4 7.25 3.13 13 7.63 5.75 4.5 9.5 11 3.76 6.5 3.77 15.77v0.5q-0.01 11.25-3.9 19.39-3.87 8.13-10.87 13.38-7.01 5.25-16.4 7.87-9.37 2.63-20.12 2.63z"/>
			</g>
		</g>
	</g>
	<g>
		<g>
			<g>
				<path class="s0" d="m1270.87 103.42h38.02v67.54q3.25-4.25 7.13-8.12 3.87-3.88 8.62-6.88 4.75-3 10.5-4.75 5.77-1.75 13.02-1.75 21.77 0 33.65 13.25 11.87 13.26 11.87 36.52v86.82h-38.02v-74.79q0-13.52-6-20.4-6-6.88-17-6.88-11.02 0-17.39 6.88-6.38 6.88-6.38 20.4v74.79h-38.02z"/>
			</g>
		</g>
	</g>
	<g>
		<g>
			<g>
			</g>
		</g>
	</g>
</svg>